<svg width="33" height="33" viewBox="0 0 33 33" fill="none" xmlns="http://www.w3.org/2000/svg">
<path d="M15.1801 23.76C10.4281 23.76 6.6001 19.932 6.6001 15.18C6.6001 10.428 10.4281 6.6 15.1801 6.6C19.9321 6.6 23.7601 10.428 23.7601 15.18C23.7601 19.932 19.9321 23.76 15.1801 23.76ZM15.1801 7.92C11.1541 7.92 7.9201 11.154 7.9201 15.18C7.9201 19.206 11.1541 22.44 15.1801 22.44C19.2061 22.44 22.4401 19.206 22.4401 15.18C22.4401 11.154 19.2061 7.92 15.1801 7.92Z" fill="white"/>
<path d="M21.5702 20.6362L27.497 26.563L26.5638 27.4963L20.637 21.5695L21.5702 20.6362Z" fill="white"/>
<g clip-path="url(#clip0_424_1184)">
<rect x="12.75" width="14" height="14" rx="7" fill="#121212"/>
<path d="M20.787 11.4074L20.5948 11.2503C16.4634 7.95062 15.3425 6.78788 15.3425 4.90236C15.3425 3.33109 16.6236 2.07407 18.2249 2.07407C19.538 2.07407 20.2746 2.79686 20.787 3.36251C21.2994 2.79686 22.036 2.07407 23.3491 2.07407C24.9504 2.07407 26.2314 3.33109 26.2314 4.90236C26.2314 6.78788 25.1105 7.95062 20.9791 11.2503L20.787 11.4074ZM18.2249 2.70258C16.9759 2.70258 15.9831 3.67677 15.9831 4.90236C15.9831 6.50505 17.0079 7.57351 20.787 10.5903C24.5661 7.57351 25.5909 6.50505 25.5909 4.90236C25.5909 3.67677 24.5981 2.70258 23.3491 2.70258C22.2281 2.70258 21.6197 3.36251 21.1393 3.89674L20.787 4.30527L20.4347 3.89674C19.9543 3.36251 19.3458 2.70258 18.2249 2.70258Z" fill="white"/>
</g>
<defs>
<clipPath id="clip0_424_1184">
<rect x="12.75" width="14" height="14" rx="7" fill="white"/>
</clipPath>
</defs>
</svg>
