<svg width="33" height="35" viewBox="0 0 33 35" fill="none" xmlns="http://www.w3.org/2000/svg">
<path d="M17.8935 6.11414H15.1049V27.8741H17.8951V6.11414H17.8935ZM19.5723 9.25869L19.1601 9.22829V11.801L19.5065 11.8285C20.6037 11.9154 21.5192 12.0674 22.3954 12.2961L23.8845 15.7071H19.1616V18.2812H24.8517C25.1432 18.801 25.2373 19.3497 25.242 20.1025V21.323H19.1601V23.8971H23.5287L23.6541 25.5099C23.7058 26.1831 24.3124 26.7043 25.0429 26.7043H26.6339C27.0034 26.704 27.3576 26.5682 27.6188 26.3269C27.8801 26.0857 28.027 25.7585 28.0274 25.4173V20.0924C28.0211 19.1122 27.8958 18.0655 27.2672 16.9985L26.9537 16.4092H29.04V15.1222C29.04 14.7808 28.8932 14.4534 28.6319 14.2121C28.3705 13.9707 28.0161 13.8351 27.6465 13.8351H26.0712L24.5068 10.2533L24.3532 10.1997C22.9111 9.68579 21.3875 9.39768 19.5723 9.25869ZM13.84 11.801V9.22684L13.4293 9.25725C11.611 9.39623 10.0905 9.68434 8.64842 10.1983L8.49323 10.2519L6.92887 13.8337H5.35353C5.1704 13.8337 4.98907 13.867 4.8199 13.9318C4.65073 13.9965 4.49704 14.0915 4.36762 14.2111C4.2382 14.3308 4.13559 14.4729 4.06565 14.6292C3.99571 14.7855 3.95982 14.953 3.96002 15.1222V16.4078H6.04637L5.73287 16.997C5.1043 18.0626 4.98047 19.1108 4.97263 20.0909V25.4158C4.97263 26.1267 5.59649 26.7043 6.3677 26.7043H7.95715C8.30943 26.7041 8.64852 26.5806 8.90619 26.3587C9.16386 26.1368 9.32099 25.833 9.34595 25.5085L9.47135 23.8957H13.84V21.3215H7.75964V20.1025C7.76435 19.3497 7.8584 18.7995 8.15152 18.2798H13.84V15.7071H9.11396L10.6062 12.2961C11.55 12.0542 12.517 11.8976 13.4936 11.8285L13.84 11.801Z" fill="white"/>
</svg>
