<svg width="34" height="35" viewBox="0 0 34 35" fill="none" xmlns="http://www.w3.org/2000/svg">
<path d="M17 26.9995L16.592 26.6595C7.82 19.5195 5.44 17.0035 5.44 12.9235C5.44 9.52347 8.16 6.80347 11.56 6.80347C14.348 6.80347 15.912 8.36747 17 9.59147C18.088 8.36747 19.652 6.80347 22.44 6.80347C25.84 6.80347 28.56 9.52347 28.56 12.9235C28.56 17.0035 26.18 19.5195 17.408 26.6595L17 26.9995ZM11.56 8.16347C8.908 8.16347 6.8 10.2715 6.8 12.9235C6.8 16.3915 8.976 18.7035 17 25.2315C25.024 18.7035 27.2 16.3915 27.2 12.9235C27.2 10.2715 25.092 8.16347 22.44 8.16347C20.06 8.16347 18.768 9.59147 17.748 10.7475L17 11.6315L16.252 10.7475C15.232 9.59147 13.94 8.16347 11.56 8.16347Z" fill="white"/>
</svg>
