<svg width="32" height="35" viewBox="0 0 32 35" fill="none" xmlns="http://www.w3.org/2000/svg">
<path d="M6.14398 27.4755L7.74398 20.7435L17.28 10.6115L22.016 15.6434L12.48 25.7755L6.14398 27.4755ZM8.89598 21.4235L7.93598 25.5714L11.84 24.5514L20.224 15.6434L17.28 12.5154L8.89598 21.4235Z" fill="white"/>
<path d="M11.392 25.3674C11.008 23.6674 9.72799 22.3074 8.12799 21.8994L8.44799 20.6074C10.496 21.1514 12.096 22.8514 12.608 25.0274L11.392 25.3674Z" fill="white"/>
<path d="M18.7507 13.1186L19.6557 14.0801L11.3293 22.9337L10.4243 21.9749L18.7507 13.1186ZM7.03998 26.5235L8.89598 26.0475C8.70398 25.2995 8.19198 24.7555 7.48798 24.5515L7.03998 26.5235ZM22.4 15.2355L17.664 10.2035L19.584 8.16345L19.904 8.23145C22.208 8.57145 24 10.4755 24.32 12.9235L24.384 13.2635L22.4 15.2355ZM19.456 10.2035L22.4 13.3315L22.976 12.7195C22.656 11.1555 21.504 9.93145 20.032 9.59145L19.456 10.2035Z" fill="white"/>
</svg>
